# xmcd
#
# Track frame offsets: 
#        150
#        13802
#        26146
#        41285
#        56003
#        70003
#        82950
#        98311
#        110161
#        121867
#
# Disc length: 1815 seconds
#
# Revision: 0
# Processed by: cddbd v1.4PL0 Copyright (c) Steve Scherf et al.
# Submitted via: ExactAudioCopy v0.90b3
#
DISCID=7507150a
DTITLE=Lacy J. Dalton - Takin' It Easy
DYEAR=1900
DGENRE=Country
TTITLE0=16Th Avenue
TTITLE1=Dream Baby
TTITLE2=Everybody Makes Mistakes
TTITLE3=Working Class Man
TTITLE4=Tennessee Waltz
TTITLE5=Crazy Blue Eyes
TTITLE6=Takin' It Easy
TTITLE7=Hillbilly Girl With The Blues
TTITLE8=Hard Times
TTITLE9=Whisper
EXTD=
EXTT0=
EXTT1=
EXTT2=
EXTT3=
EXTT4=
EXTT5=
EXTT6=
EXTT7=
EXTT8=
EXTT9=
PLAYORDER=
